<svg width="14" height="14" viewBox="0 0 14 14" fill="none" xmlns="http://www.w3.org/2000/svg">
<g clip-path="url(#clip0_1065_1946)">
<path d="M8.28262 7.01158L13.7339 1.56009C14.0887 1.20549 14.0887 0.632156 13.7339 0.277559C13.3793 -0.0770372 12.806 -0.0770372 12.4514 0.277559L6.99992 5.72905L1.5486 0.277559C1.19384 -0.0770372 0.620669 -0.0770372 0.266072 0.277559C-0.0886907 0.632156 -0.0886907 1.20549 0.266072 1.56009L5.7174 7.01158L0.266072 12.4631C-0.0886907 12.8177 -0.0886907 13.391 0.266072 13.7456C0.442789 13.9225 0.675146 14.0113 0.907336 14.0113C1.13953 14.0113 1.37172 13.9225 1.5486 13.7456L6.99992 8.2941L12.4514 13.7456C12.6283 13.9225 12.8605 14.0113 13.0927 14.0113C13.3249 14.0113 13.5571 13.9225 13.7339 13.7456C14.0887 13.391 14.0887 12.8177 13.7339 12.4631L8.28262 7.01158Z" fill="#DBDADA"/>
</g>
<defs>
<clipPath id="clip0_1065_1946">
<rect width="14" height="14" fill="white"/>
</clipPath>
</defs>
</svg>
